<svg width="171" height="18" viewBox="0 0 171 18" fill="none" xmlns="http://www.w3.org/2000/svg">
<path d="M4.176 17.288C2.848 17.288 1.864 17.032 1.224 16.52C0.6 16.008 0.288 15.352 0.288 14.552C0.288 14.056 0.448 13.624 0.768 13.256C1.088 12.872 1.552 12.68 2.16 12.68C2.672 12.68 3.088 12.832 3.408 13.136C3.744 13.44 3.912 13.824 3.912 14.288C3.912 14.608 3.856 14.88 3.744 15.104C3.632 15.328 3.488 15.488 3.312 15.584V15.704C3.44 15.736 3.568 15.76 3.696 15.776C3.84 15.792 3.976 15.8 4.104 15.8C4.696 15.8 5.144 15.616 5.448 15.248C5.752 14.88 5.904 14.248 5.904 13.352V1.832H3.624V0.248H11.472V1.832H9.792V12.08C9.792 12.848 9.688 13.552 9.48 14.192C9.288 14.832 8.968 15.384 8.52 15.848C8.072 16.296 7.488 16.648 6.768 16.904C6.064 17.16 5.2 17.288 4.176 17.288ZM17.5389 17.288C16.0029 17.288 14.9149 16.904 14.2749 16.136C13.6509 15.352 13.3389 14.184 13.3389 12.632V6.848L11.8989 6.536V5.168L16.9869 4.136V12.512C16.9869 13.36 17.1309 13.968 17.4189 14.336C17.7229 14.688 18.2269 14.864 18.9309 14.864C19.2029 14.864 19.4749 14.832 19.7469 14.768C20.0189 14.688 20.2589 14.576 20.4669 14.432C20.6749 14.272 20.8429 14.08 20.9709 13.856C21.0989 13.616 21.1629 13.328 21.1629 12.992V6.848L19.7229 6.536V5.168L24.8109 4.136V14.576L26.2509 14.888V16.256L21.2349 17.288V14.912H21.1149C20.8909 15.552 20.4909 16.112 19.9149 16.592C19.3389 17.056 18.5469 17.288 17.5389 17.288ZM30.75 17.288C29.39 17.288 28.398 16.976 27.774 16.352C27.166 15.712 26.862 14.824 26.862 13.688C26.862 11.208 28.694 9.968 32.358 9.968H34.038V8.6C34.038 7.624 33.854 6.888 33.486 6.392C33.118 5.896 32.478 5.648 31.566 5.648C31.23 5.648 30.942 5.672 30.702 5.72C30.462 5.768 30.254 5.832 30.078 5.912V6.032C30.238 6.112 30.39 6.256 30.534 6.464C30.694 6.672 30.774 6.952 30.774 7.304C30.774 7.784 30.622 8.192 30.318 8.528C30.014 8.848 29.558 9.008 28.95 9.008C28.47 9.008 28.07 8.84 27.75 8.504C27.43 8.168 27.27 7.744 27.27 7.232C27.27 6.848 27.382 6.472 27.606 6.104C27.83 5.72 28.166 5.384 28.614 5.096C29.062 4.808 29.614 4.576 30.27 4.4C30.942 4.224 31.71 4.136 32.574 4.136C34.318 4.136 35.606 4.512 36.438 5.264C37.27 6 37.686 7.048 37.686 8.408V15.416H39.126V16.784C38.854 16.944 38.502 17.064 38.07 17.144C37.638 17.24 37.19 17.288 36.726 17.288C35.846 17.288 35.222 17.088 34.854 16.688C34.502 16.272 34.326 15.76 34.326 15.152V15.104H34.182C34.07 15.376 33.926 15.64 33.75 15.896C33.59 16.152 33.374 16.384 33.102 16.592C32.846 16.8 32.526 16.968 32.142 17.096C31.758 17.224 31.294 17.288 30.75 17.288ZM32.118 15.128C32.71 15.128 33.174 14.992 33.51 14.72C33.862 14.448 34.038 13.976 34.038 13.304V11.408H32.742C31.974 11.408 31.398 11.568 31.014 11.888C30.646 12.208 30.462 12.664 30.462 13.256V13.64C30.462 14.152 30.614 14.528 30.918 14.768C31.222 15.008 31.622 15.128 32.118 15.128ZM39.8289 15.416H41.2689V6.848L39.8289 6.536V5.168L44.8449 4.136V6.512H44.9649C45.1889 5.872 45.5889 5.32 46.1649 4.856C46.7409 4.376 47.5329 4.136 48.5409 4.136C50.0769 4.136 51.1569 4.528 51.7809 5.312C52.4209 6.08 52.7409 7.24 52.7409 8.792V15.416H54.1809V17H47.7729V15.416H49.0929V8.912C49.0929 8.064 48.9409 7.464 48.6369 7.112C48.3489 6.744 47.8529 6.56 47.1489 6.56C46.8769 6.56 46.6049 6.6 46.3329 6.68C46.0609 6.744 45.8209 6.856 45.6129 7.016C45.4049 7.16 45.2369 7.352 45.1089 7.592C44.9809 7.816 44.9169 8.096 44.9169 8.432V15.416H46.2369V17H39.8289V15.416ZM59.7137 15.416H61.3937V1.832H59.7137V0.248H73.0817V4.712H70.2977V1.976H65.2817V7.76H68.4497V6.32H70.2257V10.928H68.4497V9.488H65.2817V15.416H67.5617V17H59.7137V15.416ZM73.4964 15.416H74.9364V6.848L73.4964 6.536V5.168L78.5124 4.136V6.512H78.6084C78.8324 5.84 79.1924 5.28 79.6884 4.832C80.1844 4.368 80.8324 4.136 81.6324 4.136C82.4164 4.136 83.0324 4.352 83.4804 4.784C83.9284 5.2 84.1524 5.776 84.1524 6.512C84.1524 7.152 83.9844 7.656 83.6484 8.024C83.3124 8.392 82.8404 8.576 82.2324 8.576C81.6564 8.576 81.2164 8.424 80.9124 8.12C80.6084 7.8 80.4564 7.424 80.4564 6.992C80.4564 6.8 80.4964 6.624 80.5764 6.464C80.6564 6.304 80.7524 6.2 80.8644 6.152L80.8404 6.032C80.7924 6.016 80.7204 6.008 80.6244 6.008C80.3684 6.008 80.1204 6.08 79.8804 6.224C79.6404 6.368 79.4244 6.552 79.2324 6.776C79.0404 7 78.8804 7.248 78.7524 7.52C78.6404 7.792 78.5844 8.056 78.5844 8.312V15.416H80.5044V17H73.4964V15.416ZM88.2844 17.288C86.9244 17.288 85.9324 16.976 85.3084 16.352C84.7004 15.712 84.3964 14.824 84.3964 13.688C84.3964 11.208 86.2284 9.968 89.8924 9.968H91.5724V8.6C91.5724 7.624 91.3884 6.888 91.0204 6.392C90.6524 5.896 90.0124 5.648 89.1004 5.648C88.7644 5.648 88.4764 5.672 88.2364 5.72C87.9964 5.768 87.7884 5.832 87.6124 5.912V6.032C87.7724 6.112 87.9244 6.256 88.0684 6.464C88.2284 6.672 88.3084 6.952 88.3084 7.304C88.3084 7.784 88.1564 8.192 87.8524 8.528C87.5484 8.848 87.0924 9.008 86.4844 9.008C86.0044 9.008 85.6044 8.84 85.2844 8.504C84.9644 8.168 84.8044 7.744 84.8044 7.232C84.8044 6.848 84.9164 6.472 85.1404 6.104C85.3644 5.72 85.7004 5.384 86.1484 5.096C86.5964 4.808 87.1484 4.576 87.8044 4.4C88.4764 4.224 89.2444 4.136 90.1084 4.136C91.8524 4.136 93.1404 4.512 93.9724 5.264C94.8044 6 95.2204 7.048 95.2204 8.408V15.416H96.6604V16.784C96.3884 16.944 96.0364 17.064 95.6044 17.144C95.1724 17.24 94.7244 17.288 94.2604 17.288C93.3804 17.288 92.7564 17.088 92.3884 16.688C92.0364 16.272 91.8604 15.76 91.8604 15.152V15.104H91.7164C91.6044 15.376 91.4604 15.64 91.2844 15.896C91.1244 16.152 90.9084 16.384 90.6364 16.592C90.3804 16.8 90.0604 16.968 89.6764 17.096C89.2924 17.224 88.8284 17.288 88.2844 17.288ZM89.6524 15.128C90.2444 15.128 90.7084 14.992 91.0444 14.72C91.3964 14.448 91.5724 13.976 91.5724 13.304V11.408H90.2764C89.5084 11.408 88.9324 11.568 88.5484 11.888C88.1804 12.208 87.9964 12.664 87.9964 13.256V13.64C87.9964 14.152 88.1484 14.528 88.4524 14.768C88.7564 15.008 89.1564 15.128 89.6524 15.128ZM97.3633 15.416H98.8033V6.848L97.3633 6.536V5.168L102.379 4.136V6.512H102.499C102.723 5.872 103.123 5.32 103.699 4.856C104.275 4.376 105.067 4.136 106.075 4.136C107.611 4.136 108.691 4.528 109.315 5.312C109.955 6.08 110.275 7.24 110.275 8.792V15.416H111.715V17H105.307V15.416H106.627V8.912C106.627 8.064 106.475 7.464 106.171 7.112C105.883 6.744 105.387 6.56 104.683 6.56C104.411 6.56 104.139 6.6 103.867 6.68C103.595 6.744 103.355 6.856 103.147 7.016C102.939 7.16 102.771 7.352 102.643 7.592C102.515 7.816 102.451 8.096 102.451 8.432V15.416H103.771V17H97.3633V15.416ZM118.582 17.288C117.574 17.288 116.686 17.12 115.918 16.784C115.166 16.448 114.526 15.984 113.998 15.392C113.486 14.8 113.094 14.104 112.822 13.304C112.566 12.504 112.438 11.632 112.438 10.688C112.438 9.632 112.606 8.704 112.942 7.904C113.278 7.088 113.734 6.4 114.31 5.84C114.902 5.28 115.59 4.856 116.374 4.568C117.174 4.28 118.03 4.136 118.942 4.136C120.414 4.136 121.542 4.44 122.326 5.048C123.126 5.656 123.526 6.424 123.526 7.352C123.526 7.96 123.358 8.448 123.022 8.816C122.686 9.168 122.222 9.344 121.63 9.344C121.038 9.344 120.582 9.192 120.262 8.888C119.942 8.568 119.782 8.152 119.782 7.64C119.782 7.224 119.886 6.88 120.094 6.608C120.318 6.336 120.566 6.136 120.838 6.008V5.864C120.678 5.816 120.486 5.768 120.262 5.72C120.054 5.672 119.766 5.648 119.398 5.648C118.422 5.648 117.662 5.96 117.118 6.584C116.574 7.192 116.302 8.072 116.302 9.224V11.72C116.302 12.776 116.55 13.584 117.046 14.144C117.542 14.688 118.23 14.96 119.11 14.96C120.006 14.96 120.718 14.752 121.246 14.336C121.774 13.92 122.15 13.432 122.374 12.872L123.718 13.664C123.574 14.064 123.366 14.48 123.094 14.912C122.838 15.344 122.502 15.736 122.086 16.088C121.67 16.44 121.174 16.728 120.598 16.952C120.022 17.176 119.35 17.288 118.582 17.288ZM130.396 15.56C131.868 15.56 132.604 14.68 132.604 12.92V8.504C132.604 6.744 131.868 5.864 130.396 5.864C128.924 5.864 128.188 6.744 128.188 8.504V12.92C128.188 14.68 128.924 15.56 130.396 15.56ZM130.396 17.288C129.484 17.288 128.652 17.144 127.9 16.856C127.164 16.552 126.524 16.12 125.98 15.56C125.452 15 125.044 14.312 124.756 13.496C124.468 12.68 124.324 11.752 124.324 10.712C124.324 9.672 124.468 8.744 124.756 7.928C125.044 7.112 125.452 6.424 125.98 5.864C126.524 5.304 127.164 4.88 127.9 4.592C128.652 4.288 129.484 4.136 130.396 4.136C131.308 4.136 132.132 4.288 132.868 4.592C133.62 4.88 134.26 5.304 134.788 5.864C135.332 6.424 135.748 7.112 136.036 7.928C136.324 8.744 136.468 9.672 136.468 10.712C136.468 11.752 136.324 12.68 136.036 13.496C135.748 14.312 135.332 15 134.788 15.56C134.26 16.12 133.62 16.552 132.868 16.856C132.132 17.144 131.308 17.288 130.396 17.288ZM145.695 15.416H147.591V10.304L143.079 1.832H141.879V0.248H148.935V1.832H147.255L150.471 8.12H150.567L153.903 1.832H152.223V0.248H157.191V1.832H155.967L151.479 9.776V15.416H153.375V17H145.695V15.416ZM162.17 17.288C160.634 17.288 159.546 16.904 158.906 16.136C158.282 15.352 157.97 14.184 157.97 12.632V6.848L156.53 6.536V5.168L161.618 4.136V12.512C161.618 13.36 161.762 13.968 162.05 14.336C162.354 14.688 162.858 14.864 163.562 14.864C163.834 14.864 164.106 14.832 164.378 14.768C164.65 14.688 164.89 14.576 165.098 14.432C165.306 14.272 165.474 14.08 165.602 13.856C165.73 13.616 165.794 13.328 165.794 12.992V6.848L164.354 6.536V5.168L169.442 4.136V14.576L170.882 14.888V16.256L165.866 17.288V14.912H165.746C165.522 15.552 165.122 16.112 164.546 16.592C163.97 17.056 163.178 17.288 162.17 17.288Z" fill="#2E3F60"/>
</svg>
