<svg width="141" height="141" viewBox="0 0 141 141" fill="none" xmlns="http://www.w3.org/2000/svg">
<path d="M44.1728 105.709C43.5691 105.235 43.0029 105.015 42.4744 105.05C41.9458 105.086 41.4549 105.376 41.0293 105.918L37.928 109.865L39.0659 110.759L42.0637 106.943C42.2827 106.665 42.5104 106.518 42.7316 106.492C42.9604 106.471 43.2258 106.58 43.5277 106.817C43.6283 106.896 43.7135 106.963 43.7848 107.032C43.8561 107.1 43.9523 107.201 44.0734 107.333L44.8579 106.335C44.76 106.221 44.656 106.114 44.546 106.015C44.436 105.916 44.3121 105.819 44.1728 105.709Z" fill="black"/>
<path d="M37.9448 99.9751C37.33 99.2967 36.6577 98.9361 35.9347 98.9005C35.2117 98.865 34.5075 99.1579 33.822 99.7793L30.6789 102.629L31.6507 103.701L34.7574 100.885C35.1731 100.508 35.5726 100.318 35.9494 100.309C36.34 100.3 36.6867 100.478 37.0041 100.828C37.3214 101.178 37.464 101.54 37.4105 101.921C37.3709 102.302 37.1366 102.674 36.721 103.051L33.6143 105.867L34.5928 106.947L37.7359 104.098C38.4214 103.476 38.7819 102.804 38.8173 102.081C38.8527 101.358 38.5663 100.661 37.9448 99.9751Z" fill="black"/>
<path d="M34.491 96.0121L33.745 94.7836L32.1581 95.0907L30.6455 92.5999L31.6499 91.3335L30.8885 90.0797L26.2225 96.0115L27.0809 97.4252L34.491 96.0121ZM29.8341 93.634L30.8714 95.3423L28.0333 95.9024L29.8341 93.634Z" fill="black"/>
<path d="M21.9675 86.5574L26.3214 84.9648L23.033 89.4697L23.537 90.8473L30.1742 88.4196L29.6972 87.116L25.1215 88.7897L28.5607 84.0095L28.1278 82.8261L21.4906 85.2537L21.9675 86.5574Z" fill="black"/>
<path d="M23.8053 74.3665L23.6279 71.5368L22.3802 71.6148L22.5576 74.4445L20.7991 74.5545L20.5866 71.1648L19.3389 71.2428L19.6408 76.0572L26.6945 75.616L26.6052 74.1914L23.8053 74.3665Z" fill="black"/>
<path d="M24.1388 65.0872L26.9425 63.7774L27.1391 62.1353L24.1833 63.5557C24.1061 63.0408 23.8976 62.6292 23.5785 62.3133C23.2594 61.9974 22.836 61.8079 22.3082 61.7446C21.6045 61.6602 21.0389 61.8304 20.593 62.2429C20.1568 62.6566 19.8841 63.2783 19.7859 64.0993L19.4419 66.973L26.4594 67.8143L26.6314 66.3774L24.0218 66.0646L24.1388 65.0872ZM20.8356 65.6826L20.9982 64.324C21.0473 63.9135 21.1727 63.6112 21.3646 63.4161C21.5663 63.2222 21.8247 63.1342 22.1472 63.1728C22.4697 63.2115 22.7 63.3581 22.8405 63.593C22.9906 63.8292 23.0314 64.1513 22.9823 64.5618L22.8197 65.9205L20.8356 65.6826Z" fill="black"/>
<path d="M27.5469 60.2252L27.9789 58.8544L26.7017 57.8633L27.5776 55.0843L29.192 55.0051L29.6329 53.6062L22.0962 54.0059L21.5991 55.5832L27.5469 60.2252ZM26.265 55.1555L25.6643 57.0613L23.372 55.2959L26.265 55.1555Z" fill="black"/>
<path d="M26.4003 44.5753L30.4682 46.8004L24.9128 47.2958L24.2092 48.5827L30.4103 51.9748L31.0761 50.757L26.801 48.4184L32.6628 47.8551L33.2673 46.7496L27.0662 43.3575L26.4003 44.5753Z" fill="black"/>
<path d="M32.362 38.2022C32.6016 37.915 32.9004 37.7413 33.2433 37.6685C33.5874 37.6096 33.9491 37.6679 34.3144 37.8446L34.8371 36.5115C34.192 36.2551 33.5657 36.2067 32.9707 36.3511C32.3694 36.5031 31.8411 36.8442 31.387 37.3884C31.078 37.7587 30.8635 38.1694 30.7422 38.6067C30.6209 39.0439 30.5916 39.4939 30.6669 39.9414C30.741 40.3751 30.9045 40.7937 31.1425 41.1846C31.3741 41.5831 31.6927 41.9388 32.0706 42.2543C32.456 42.576 32.8629 42.8259 33.2964 42.9826C33.7235 43.1468 34.157 43.2266 34.5969 43.2219C35.0581 43.2223 35.4955 43.1131 35.904 42.9155C36.3125 42.718 36.6706 42.4271 36.9797 42.0568C37.4337 41.5127 37.6824 40.9381 37.7244 40.3193C37.7601 39.708 37.6005 39.1003 37.2253 38.5051L36.0073 39.2578C36.2541 39.592 36.3762 39.9375 36.3721 40.2803C36.3694 40.637 36.2444 40.9558 36.0047 41.243C35.6516 41.6662 35.1952 41.875 34.6482 41.8544C34.1012 41.8338 33.5481 41.59 33.004 41.1358C32.4598 40.6816 32.1287 40.1872 32.0106 39.6527C31.8925 39.1181 32.0088 38.6254 32.362 38.2022Z" fill="black"/>
<path d="M40.2638 37.0314C40.7163 37.1212 41.1666 37.0988 41.6071 36.9703C42.0538 36.8495 42.4615 36.6336 42.8441 36.324C43.219 36.0207 43.5153 35.667 43.7267 35.2554C43.9366 34.8576 44.0464 34.4142 44.0683 33.9405C44.0859 33.5084 44.0127 33.0737 43.8627 32.6379C43.7051 32.2082 43.4691 31.7913 43.1471 31.3933C42.8313 31.003 42.4729 30.6851 42.0856 30.4412C41.6908 30.2035 41.2809 30.0412 40.8485 29.9605C40.3807 29.8831 39.9304 29.9055 39.4914 30.0201C39.0509 30.1486 38.637 30.3569 38.2621 30.6602C37.8795 30.9698 37.5894 31.3311 37.3718 31.7351C37.1604 32.1468 37.0445 32.5825 37.0316 33.0361C37.0126 33.4821 37.0857 33.9168 37.2358 34.3526C37.392 34.7961 37.6356 35.2068 37.9514 35.5971C38.2734 35.9951 38.6242 36.3192 39.019 36.5569C39.4201 36.8023 39.8299 36.9646 40.2638 37.0314ZM42.0453 35.3367C41.6015 35.6958 41.1133 35.8122 40.573 35.6921C40.0251 35.5782 39.5359 35.2396 39.0839 34.6808C38.6381 34.1298 38.4028 33.5729 38.4059 33.0133C38.4012 32.4598 38.617 32.0067 39.0608 31.6476C39.4893 31.3009 39.9837 31.1921 40.5316 31.306C41.0719 31.4261 41.5688 31.7585 42.0146 32.3096C42.4604 32.8607 42.688 33.4237 42.6926 33.9772C42.6896 34.5368 42.4738 34.99 42.0453 35.3367Z" fill="black"/>
<path d="M49.5994 23.7987L48.144 24.4004L52.1117 27.2982L53.2102 29.9547L54.5474 29.4018L53.4488 26.7453L54.202 21.8956L52.783 22.4823L52.286 25.7879L49.5994 23.7987Z" fill="black"/>
<path d="M61.4986 27.4548C62.3947 27.2677 63.0458 26.8703 63.4421 26.2646C63.8385 25.6589 63.942 24.9031 63.7528 23.9972L62.885 19.8439L61.4686 20.1396L62.3263 24.2448C62.4411 24.7941 62.4024 25.2346 62.2199 25.5644C62.0298 25.9058 61.7014 26.1151 61.2389 26.2117C60.7764 26.3083 60.3917 26.2478 60.0905 26.009C59.7816 25.7818 59.5794 25.3916 59.4646 24.8423L58.6069 20.7371L57.1809 21.0349L58.0486 25.1882C58.2379 26.0941 58.6354 26.7453 59.2411 27.1417C59.8468 27.5382 60.5929 27.6439 61.4986 27.4548Z" fill="black"/>
<path d="M80.6633 26.8263C80.923 26.6144 81.1319 26.3529 81.3111 26.0358C81.4903 25.7187 81.6187 25.3521 81.698 24.9263L82.4819 20.7165L82.1239 20.6498L81.3417 24.8499C81.1939 25.6435 80.8772 26.2153 80.3897 26.575C79.9003 26.9444 79.3188 27.0563 78.6317 26.9282C77.935 26.7983 77.4327 26.4844 77.1091 25.9634C76.7838 25.4522 76.7038 24.8064 76.8516 24.0128L77.6337 19.8127L77.2757 19.746L76.4917 23.9558C76.4124 24.3816 76.3905 24.768 76.4436 25.1284C76.4966 25.4888 76.6071 25.8098 76.7731 26.1011C76.9567 26.4057 77.1995 26.6612 77.5033 26.858C77.8071 27.0549 78.1622 27.1912 78.5686 27.2669C78.9654 27.3409 79.3457 27.3417 79.7 27.2676C80.0542 27.1934 80.3824 27.0443 80.6633 26.8263Z" fill="black"/>
<path d="M91.1528 23.6696L87.8372 25.8455L86.8492 21.998L86.4546 21.8447L87.5207 26.0077L83.8418 28.412L84.2272 28.5617L87.6392 26.3283L88.6501 30.2797L89.0447 30.433L87.9464 26.1625L91.5382 23.8193L91.1528 23.6696Z" fill="black"/>
<path d="M96.8338 34.4549L99.5054 28.2311L99.2213 28.0031L96.3492 34.7601L96.6332 34.9881L102.067 31.0949L99.4432 37.2434L99.7273 37.4714L105.701 33.204L105.417 32.976L99.9202 36.9321L102.592 30.7083L102.331 30.4988L96.8338 34.4549Z" fill="black"/>
<path d="M107.226 40.4848L106.017 44.3691L106.284 44.6978L107.493 40.8135C107.922 41.3271 108.387 41.6345 108.881 41.7279C109.369 41.8137 109.837 41.6875 110.28 41.3277C110.731 40.9618 110.959 40.5236 110.963 40.0131C110.959 39.5088 110.748 38.9829 110.301 38.4325L108.751 36.5214L103.263 40.975L103.493 41.2578L106.122 39.1241L107.226 40.4848ZM108.728 37.0089L110.031 38.6143C110.415 39.0883 110.6 39.5344 110.612 39.9556C110.61 40.3753 110.425 40.741 110.051 41.0449C109.669 41.355 109.273 41.4608 108.863 41.3621C108.446 41.2697 108.055 40.991 107.677 40.5247L106.374 38.9194L108.728 37.0089Z" fill="black"/>
<path d="M114.203 44.0046L108.141 47.6374L108.329 47.9498L114.391 44.317L114.203 44.0046Z" fill="black"/>
<path d="M118.591 53.0015L116.397 47.8474L116.098 47.9747L117.124 50.3841L110.92 53.0248L111.062 53.36L117.266 50.7193L118.292 53.1288L118.591 53.0015Z" fill="black"/>
<path d="M112.954 58.6463L113.915 62.8398L114.232 62.7673L113.352 58.9289L116.451 58.2193L117.203 61.5012L117.52 61.4287L116.768 58.1468L119.608 57.4966L120.487 61.335L120.804 61.2625L119.843 57.069L112.954 58.6463Z" fill="black"/>
<path d="M117.858 68.2841L114.573 70.6829L114.592 71.1058L117.877 68.707C117.916 69.3754 118.106 69.8992 118.447 70.2687C118.788 70.6284 119.239 70.8059 119.809 70.7812C120.39 70.7561 120.833 70.5398 121.141 70.1323C121.438 69.7253 121.582 69.1771 121.551 68.469L121.444 66.0102L114.383 66.3161L114.399 66.68L117.782 66.5334L117.858 68.2841ZM121.136 66.3881L121.225 68.4535C121.252 69.0633 121.134 69.5315 120.893 69.877C120.642 70.2131 120.275 70.3964 119.793 70.4173C119.302 70.4386 118.921 70.2876 118.651 69.9643C118.371 69.6414 118.223 69.1847 118.196 68.5847L118.107 66.5194L121.136 66.3881Z" fill="black"/>
<path d="M113.43 83.2692C113.626 83.5414 113.874 83.7658 114.18 83.9639C114.486 84.1621 114.844 84.3124 115.264 84.4174L119.418 85.4555L119.507 85.1022L115.362 84.0664C114.579 83.8708 114.027 83.5198 113.697 83.0113C113.358 82.5004 113.282 81.9131 113.451 81.235C113.623 80.5473 113.966 80.065 114.506 79.7736C115.036 79.4799 115.685 79.4392 116.468 79.6349L120.613 80.6706L120.701 80.3172L116.547 79.2791C116.127 79.1741 115.742 79.1288 115.379 79.1599C115.016 79.191 114.689 79.2817 114.389 79.4298C114.074 79.5946 113.804 79.8215 113.589 80.1128C113.374 80.4041 113.217 80.7503 113.117 81.1515C113.019 81.543 112.995 81.9227 113.048 82.2808C113.1 82.6389 113.229 82.9756 113.43 83.2692Z" fill="black"/>
<path d="M117.82 89.739L111.286 87.0442L111.147 87.381L117.682 90.0757L117.82 89.739Z" fill="black"/>
<path d="M106.199 96.2398C105.895 96.652 105.684 97.0712 105.562 97.5192C105.44 97.9672 105.422 98.4064 105.503 98.8448C105.582 99.2694 105.748 99.6736 106.004 100.057C106.259 100.441 106.593 100.785 107.013 101.094C107.425 101.398 107.86 101.621 108.302 101.751C108.744 101.881 109.18 101.92 109.609 101.869C110.043 101.811 110.457 101.663 110.849 101.414C111.24 101.164 111.586 100.844 111.89 100.432L113.086 98.8076L107.396 94.6151L106.199 96.2398ZM112.609 98.9081L111.634 100.232C111.36 100.604 111.045 100.898 110.691 101.114C110.336 101.33 109.963 101.471 109.57 101.523C109.181 101.554 108.789 101.522 108.39 101.399C107.991 101.277 107.609 101.081 107.229 100.801C106.849 100.521 106.549 100.214 106.313 99.8696C106.078 99.5251 105.923 99.1543 105.853 98.7847C105.779 98.3876 105.795 97.9838 105.89 97.5892C105.991 97.1867 106.186 96.805 106.46 96.4325L107.441 95.101L112.609 98.9081Z" fill="black"/>
<path d="M101.993 101.304L98.8455 104.236L99.0668 104.473L101.948 101.79L104.115 104.118L101.651 106.412L101.873 106.65L104.336 104.355L106.322 106.488L103.441 109.171L103.662 109.409L106.81 106.478L101.993 101.304Z" fill="black"/>
<path d="M94.3884 107.338C94.1326 107.505 93.9066 107.699 93.7239 107.923C93.5412 108.148 93.3965 108.395 93.3063 108.653C93.205 108.93 93.1663 109.214 93.1987 109.498C93.231 109.783 93.3236 110.051 93.4847 110.299C93.6565 110.563 93.8646 110.756 94.0924 110.89C94.3149 111.015 94.5873 111.073 94.8877 111.066C95.0462 111.056 95.2294 111.031 95.432 110.982C95.6346 110.932 95.9989 110.824 96.5195 110.65C96.9197 110.507 97.2102 110.412 97.3744 110.375C97.5386 110.339 97.6863 110.313 97.8093 110.304C98.0717 110.274 98.2954 110.293 98.4828 110.382C98.6648 110.464 98.8188 110.61 98.9531 110.816C99.1893 111.179 99.2477 111.576 99.1118 112.017C98.9787 112.444 98.6963 112.804 98.259 113.089C97.8383 113.362 97.4191 113.494 97.0068 113.492C96.5946 113.49 96.1975 113.349 95.8157 113.069L95.6211 113.384C96.038 113.7 96.4896 113.852 96.9728 113.855C97.4589 113.844 97.9466 113.691 98.4416 113.369C98.6808 113.213 98.8767 113.027 99.0483 112.822C99.2198 112.616 99.3534 112.388 99.4325 112.149C99.5174 111.882 99.5502 111.626 99.5204 111.363C99.4905 111.101 99.4004 110.854 99.2501 110.623C99.089 110.376 98.8999 110.193 98.6828 110.076C98.4657 109.959 98.2205 109.907 97.9308 109.931C97.7588 109.937 97.5673 109.968 97.3565 110.023C97.1485 110.064 96.8279 110.167 96.3947 110.332C95.9892 110.466 95.6905 110.567 95.5015 110.619C95.3208 110.666 95.1512 110.694 95.0064 110.706C94.7332 110.72 94.4988 110.684 94.2978 110.592C94.0996 110.486 93.9266 110.328 93.7817 110.106C93.5132 109.693 93.4581 109.247 93.6052 108.788C93.7522 108.328 94.0759 107.941 94.5709 107.619C95.0494 107.307 95.5371 107.155 96.0476 107.163C96.5527 107.163 97.0149 107.332 97.4319 107.648L97.586 107.29C97.1583 106.957 96.6441 106.798 96.0598 106.803C95.4754 106.807 94.9164 106.995 94.3884 107.338Z" fill="black"/>
<path d="M92.6422 116.523L89.6067 110.139L89.2778 110.295L92.3133 116.679L92.6422 116.523Z" fill="black"/>
<path d="M80.755 113.38L81.7568 116.646L84.3447 115.852L84.2494 115.541L82.0097 116.228C81.8942 115.852 81.8373 115.498 81.8239 115.152C81.8198 114.804 81.8556 114.484 81.9528 114.197C82.0732 113.851 82.2544 113.569 82.4905 113.331C82.7266 113.094 83.0264 112.93 83.3746 112.824C83.7698 112.702 84.1628 112.674 84.5441 112.743C84.9349 112.808 85.2951 112.976 85.6192 113.227C85.9128 113.446 86.1709 113.717 86.387 114.052C86.6125 114.384 86.7808 114.765 86.9107 115.189C87.0378 115.603 87.112 116.013 87.1116 116.414C87.1207 116.813 87.0617 117.192 86.9413 117.537C86.8136 117.927 86.6064 118.258 86.3195 118.531C86.0327 118.805 85.6946 119.011 85.2993 119.132C84.8006 119.285 84.3273 119.286 83.8888 119.132C83.4504 118.979 83.0714 118.683 82.7519 118.245L82.4355 118.456C82.8006 118.941 83.2439 119.279 83.7598 119.45C84.2756 119.621 84.8234 119.628 85.3975 119.452C85.8398 119.317 86.225 119.096 86.5437 118.792C86.8624 118.488 87.1015 118.127 87.2582 117.698C87.4047 117.303 87.4738 116.89 87.472 116.448C87.4796 116.003 87.4033 115.553 87.2589 115.082C87.1146 114.611 86.9253 114.196 86.6695 113.831C86.4201 113.455 86.1316 113.152 85.8011 112.914C85.4308 112.646 85.0206 112.484 84.5864 112.411C84.1522 112.338 83.7187 112.368 83.2764 112.504C82.7494 112.665 82.3345 112.957 82.0157 113.395C81.7034 113.82 81.5547 114.308 81.5636 114.841L81.0844 113.279L80.755 113.38Z" fill="black"/>
<path d="M73.3828 121.533L72.7577 115.184L77.6931 121.109L78.1339 121.066L77.4412 114.031L77.0886 114.066L77.7359 120.64L72.6314 114.504L72.3375 114.533L73.0302 121.567L73.3828 121.533Z" fill="black"/>
<path d="M68.459 114.502L64.1758 114.104L64.1458 114.427L68.0663 114.792L67.7728 117.958L64.4207 117.646L64.3907 117.97L67.7428 118.281L67.4738 121.183L63.5532 120.818L63.5233 121.142L67.8065 121.54L68.459 114.502Z" fill="black"/>
<path d="M57.7733 116.149L56.5203 112.278L56.1128 112.164L57.3658 116.034C56.7188 115.862 56.1618 115.879 55.7043 116.088C55.2563 116.299 54.9468 116.673 54.7922 117.222C54.6349 117.781 54.7018 118.27 54.9929 118.69C55.2866 119.1 55.7625 119.408 56.4447 119.6L58.8136 120.267L60.7275 113.463L60.3769 113.364L59.4599 116.624L57.7733 116.149ZM58.551 119.855L56.5611 119.295C55.9736 119.13 55.5656 118.872 55.3127 118.534C55.072 118.191 55.0122 117.785 55.1428 117.321C55.2761 116.847 55.5385 116.532 55.9299 116.377C56.3241 116.211 56.8041 116.214 57.3821 116.376L59.372 116.936L58.551 119.855Z" fill="black"/>
</svg>
